<?xml version="1.0" encoding="UTF-8"?>
<svg id="Layer_1" data-name="Layer 1" xmlns="http://www.w3.org/2000/svg" viewBox="0 0 36 36">
  <defs>
    <style>
      .cls-1 {
        fill: #f58220;
      }

      .cls-1, .cls-2, .cls-3, .cls-4 {
        stroke-width: 0px;
      }

      .cls-2 {
        fill: #595959;
      }

      .cls-3 {
        fill: #fff;
      }

      .cls-4 {
        fill: #fbb040;
      }
    </style>
  </defs>
  <rect class="cls-4" x="13.13" y="6.71" width=".5" height="13.04" transform="translate(-5.01 9.25) rotate(-32.47)"/>
  <rect class="cls-4" x="13.44" y="12.85" width="12.63" height=".5" transform="translate(-.9 24.73) rotate(-62.93)"/>
  <rect class="cls-4" x="16.86" y="17.85" width="13.81" height=".5" transform="translate(-1.53 2.21) rotate(-5.15)"/>
  <rect class="cls-4" x="21.26" y="16.81" width=".5" height="13.08" transform="translate(-10.21 22.05) rotate(-45)"/>
  <rect class="cls-4" x="7.37" y="23.6" width="12.27" height=".5" transform="translate(-13.84 22.03) rotate(-56.67)"/>
  <rect class="cls-4" x="11.01" y="12.16" width=".5" height="11.39" transform="translate(-8.11 26.23) rotate(-81.16)"/>
  <circle class="cls-3" cx="17.01" cy="18.6" r="4.87"/>
  <circle class="cls-1" cx="9.88" cy="7.73" r="1.5"/>
  <circle class="cls-1" cx="10.13" cy="28.98" r="1.75"/>
  <circle class="cls-1" cx="30.63" cy="17.48" r="1"/>
  <circle class="cls-1" cx="26.13" cy="27.98" r="2.75"/>
  <circle class="cls-1" cx="5.63" cy="16.98" r="1.25"/>
  <circle class="cls-1" cx="22.63" cy="7.48" r="2.25"/>
  <circle class="cls-2" cx="17.01" cy="18.6" r="3.37"/>
</svg>